<svg xmlns="http://www.w3.org/2000/svg" width="29.541" height="25.656" viewBox="0 0 29.541 25.656">
  <g id="noun-air-4377931" transform="translate(-1.907 -5.806)">
    <path id="Path_34" data-name="Path 34" d="M26.49,16.868a4.543,4.543,0,0,0-.809.073v-.058a4.168,4.168,0,0,0-4.168-4.158H21.26a7.57,7.57,0,0,0-15.11.517,8.16,8.16,0,0,0,.088,1.136A6.147,6.147,0,0,0,6.919,26.29h3.319a.487.487,0,1,0,0-.941h-3.2a5.2,5.2,0,0,1-.161-10.187h0a4.689,4.689,0,0,1,1.15-.132,5.1,5.1,0,0,1,2.023.409.409.409,0,0,0,.185.039.47.47,0,0,0,.19-.9,6.01,6.01,0,0,0-2.4-.487,6.337,6.337,0,0,0-.877.068,6.726,6.726,0,0,1-.078-.931,6.629,6.629,0,1,1,13.258,0,6.556,6.556,0,0,1-.434,2.423.471.471,0,0,0,.877.341,7.5,7.5,0,0,0,.487-2.306,2.15,2.15,0,0,1,.253,0,3.232,3.232,0,0,1,3.227,3.227,3.412,3.412,0,0,1-.054.585h0a3.124,3.124,0,0,1-.444,1.126.471.471,0,1,0,.8.5,4.085,4.085,0,0,0,.487-1.155,3.953,3.953,0,0,1,.975-.132,3.826,3.826,0,0,1,.877,7.55h-5.22a.487.487,0,1,0,0,.941h5.357a4.767,4.767,0,0,0-1.028-9.456Z" transform="translate(0 0)" fill="#a7a7a7"/>
    <path id="Path_35" data-name="Path 35" d="M29.78,41.961a1.95,1.95,0,0,0,1.9-1.95,1.9,1.9,0,0,0-1.9-1.891,1.489,1.489,0,0,0-1.618,1.345.487.487,0,0,0,.941,0c0-.288.444-.4.678-.4a.975.975,0,0,1,.975.975,1.024,1.024,0,0,1-.975,1.028h-4.2a.487.487,0,1,0,0,.941Z" transform="translate(-11.82 -16.563)" fill="#a7a7a7"/>
    <path id="Path_36" data-name="Path 36" d="M32.025,48.612H26.493a.487.487,0,1,0,0,.941h5.532a1.5,1.5,0,0,1,1.414,1.5,1.409,1.409,0,0,1-1.409,1.4c-.434,0-1.043-.21-1.043-.682a.487.487,0,0,1,.307-.487.4.4,0,0,1,.487.1.487.487,0,0,0,.648-.648,1.345,1.345,0,0,0-1.492-.312,1.462,1.462,0,0,0-.892,1.34,1.8,1.8,0,0,0,1.984,1.623,2.349,2.349,0,0,0,2.349-2.345A2.437,2.437,0,0,0,32.025,48.612Z" transform="translate(-12.287 -21.932)" fill="#a7a7a7"/>
    <path id="Path_37" data-name="Path 37" d="M22.148,48.612H21a.487.487,0,1,0,0,.941h1.145a.487.487,0,0,0,0-.941Z" transform="translate(-9.473 -21.932)" fill="#a7a7a7"/>
  </g>
</svg>
