<svg xmlns="http://www.w3.org/2000/svg" width="37.356" height="34.437" viewBox="0 0 37.356 34.437">
  <g id="noun-calendar-6767139" transform="translate(-9.999 -13.121)">
    <g id="Group_15" data-name="Group 15" transform="translate(9.999 13.121)">
      <path id="Path_54" data-name="Path 54" d="M10,58.284a2,2,0,0,0,2,1.993H45.354a2,2,0,0,0,2-1.993l0-21.3H10ZM39.007,41.835a1.359,1.359,0,0,1,1.353-1.359h1.578a1.357,1.357,0,0,1,1.353,1.359v1.574a1.354,1.354,0,0,1-1.353,1.353H40.361a1.354,1.354,0,0,1-1.353-1.353Zm0,6a1.354,1.354,0,0,1,1.353-1.353h1.578a1.354,1.354,0,0,1,1.353,1.353v1.578a1.354,1.354,0,0,1-1.353,1.353H40.361a1.354,1.354,0,0,1-1.353-1.353Zm-8.315-6a1.359,1.359,0,0,1,1.353-1.359H33.62a1.362,1.362,0,0,1,1.359,1.359v1.574a1.357,1.357,0,0,1-1.359,1.353H32.046a1.354,1.354,0,0,1-1.353-1.353Zm0,6a1.354,1.354,0,0,1,1.353-1.353H33.62a1.359,1.359,0,0,1,1.359,1.353v1.578A1.357,1.357,0,0,1,33.62,50.77H32.046a1.354,1.354,0,0,1-1.353-1.353Zm-8.32-6a1.362,1.362,0,0,1,1.359-1.359h1.574a1.357,1.357,0,0,1,1.353,1.359v1.574a1.354,1.354,0,0,1-1.353,1.353H23.731a1.359,1.359,0,0,1-1.359-1.353Zm0,6a1.357,1.357,0,0,1,1.359-1.353h1.574a1.354,1.354,0,0,1,1.353,1.353v1.578a1.354,1.354,0,0,1-1.353,1.353H23.731a1.359,1.359,0,0,1-1.359-1.353Zm0,6.009A1.357,1.357,0,0,1,23.731,52.5h1.574a1.354,1.354,0,0,1,1.353,1.353v1.574a1.354,1.354,0,0,1-1.353,1.353H23.731a1.359,1.359,0,0,1-1.359-1.353ZM14.061,41.835a1.359,1.359,0,0,1,1.353-1.359h1.578a1.357,1.357,0,0,1,1.353,1.359v1.574a1.354,1.354,0,0,1-1.353,1.353H15.414a1.354,1.354,0,0,1-1.353-1.353Zm0,6a1.354,1.354,0,0,1,1.353-1.353h1.578a1.354,1.354,0,0,1,1.353,1.353v1.578a1.354,1.354,0,0,1-1.353,1.353H15.414a1.354,1.354,0,0,1-1.353-1.353Zm0,6.009A1.354,1.354,0,0,1,15.414,52.5h1.578a1.354,1.354,0,0,1,1.353,1.353v1.574a1.354,1.354,0,0,1-1.353,1.353H15.414a1.354,1.354,0,0,1-1.353-1.353Z" transform="translate(-9.999 -25.84)" fill="#eef2f5"/>
      <path id="Path_55" data-name="Path 55" d="M75.491,13.121a1.068,1.068,0,0,0-1.069,1.069v5.734a1.069,1.069,0,1,0,2.138,0V14.19A1.066,1.066,0,0,0,75.491,13.121Z" transform="translate(-44.343 -13.121)" fill="#eef2f5"/>
      <path id="Path_56" data-name="Path 56" d="M21,14.19v5.734a1.069,1.069,0,0,0,2.138,0V14.19a1.069,1.069,0,0,0-2.138,0Z" transform="translate(-15.864 -13.121)" fill="#eef2f5"/>
      <path id="Path_57" data-name="Path 57" d="M47.711,14.19v5.734a1.069,1.069,0,1,0,2.138,0V14.19a1.069,1.069,0,1,0-2.138,0Z" transform="translate(-30.104 -13.121)" fill="#eef2f5"/>
      <path id="Path_58" data-name="Path 58" d="M45.357,22.07H42.705v2.624a1.55,1.55,0,0,1-3.1,0V22.07H30.231v2.624a1.55,1.55,0,1,1-3.1,0V22.07H17.76v2.624a1.55,1.55,0,0,1-3.1,0V22.07H12.007a2,2,0,0,0-2,1.99v4.487H47.36V24.06a2,2,0,0,0-2-1.99Z" transform="translate(-10.004 -17.892)" fill="#eef2f5"/>
      <path id="Path_59" data-name="Path 59" d="M20.6,48.816h1.578a.866.866,0,0,0,.868-.868V46.374a.87.87,0,0,0-.868-.874H20.6a.874.874,0,0,0-.868.874v1.574A.875.875,0,0,0,20.6,48.816Z" transform="translate(-15.187 -30.383)" fill="#eef2f5"/>
      <path id="Path_60" data-name="Path 60" d="M38.413,48.816h1.574a.866.866,0,0,0,.868-.868V46.374a.87.87,0,0,0-.868-.874H38.413a.875.875,0,0,0-.874.874v1.574A.871.871,0,0,0,38.413,48.816Z" transform="translate(-24.681 -30.383)" fill="#eef2f5"/>
      <path id="Path_61" data-name="Path 61" d="M56.228,48.816H57.8a.87.87,0,0,0,.874-.868V46.374A.875.875,0,0,0,57.8,45.5H56.228a.87.87,0,0,0-.868.874v1.574A.868.868,0,0,0,56.228,48.816Z" transform="translate(-34.181 -30.383)" fill="#eef2f5"/>
      <path id="Path_62" data-name="Path 62" d="M74.04,48.816h1.578a.869.869,0,0,0,.868-.868V46.374a.874.874,0,0,0-.868-.874H74.04a.87.87,0,0,0-.868.874v1.574A.867.867,0,0,0,74.04,48.816Z" transform="translate(-43.677 -30.383)" fill="#eef2f5"/>
      <path id="Path_63" data-name="Path 63" d="M20.6,61.7h1.578a.866.866,0,0,0,.868-.868V59.25a.866.866,0,0,0-.868-.868H20.6a.869.869,0,0,0-.868.868v1.578A.877.877,0,0,0,20.6,61.7Z" transform="translate(-15.187 -37.25)" fill="#eef2f5"/>
      <path id="Path_64" data-name="Path 64" d="M38.413,61.7h1.574a.866.866,0,0,0,.868-.868V59.25a.866.866,0,0,0-.868-.868H38.413a.87.87,0,0,0-.874.868v1.578A.874.874,0,0,0,38.413,61.7Z" transform="translate(-24.681 -37.25)" fill="#eef2f5"/>
      <path id="Path_65" data-name="Path 65" d="M56.228,61.7H57.8a.87.87,0,0,0,.874-.868V59.25a.87.87,0,0,0-.874-.868H56.228a.866.866,0,0,0-.868.868v1.578A.87.87,0,0,0,56.228,61.7Z" transform="translate(-34.181 -37.25)" fill="#eef2f5"/>
      <path id="Path_66" data-name="Path 66" d="M74.04,61.7h1.578a.869.869,0,0,0,.868-.868V59.25a.869.869,0,0,0-.868-.868H74.04a.866.866,0,0,0-.868.868v1.578A.869.869,0,0,0,74.04,61.7Z" transform="translate(-43.677 -37.25)" fill="#eef2f5"/>
      <path id="Path_67" data-name="Path 67" d="M20.6,74.56h1.578a.866.866,0,0,0,.868-.868V72.118a.866.866,0,0,0-.868-.868H20.6a.869.869,0,0,0-.868.868v1.574A.874.874,0,0,0,20.6,74.56Z" transform="translate(-15.187 -44.11)" fill="#eef2f5"/>
      <path id="Path_68" data-name="Path 68" d="M38.413,74.56h1.574a.866.866,0,0,0,.868-.868V72.118a.866.866,0,0,0-.868-.868H38.413a.87.87,0,0,0-.874.868v1.574A.87.87,0,0,0,38.413,74.56Z" transform="translate(-24.681 -44.11)" fill="#eef2f5"/>
    </g>
  </g>
</svg>
