<svg xmlns="http://www.w3.org/2000/svg" width="29.541" height="29.726" viewBox="0 0 29.541 29.726">
  <g id="noun-humidity-7096763" transform="translate(-6.515 -6.251)">
    <path id="Path_38" data-name="Path 38" d="M18.724,31.942A11.08,11.08,0,0,1,15.7,25.291c-.106-1.64.223-3.466,2.155-7.044a45.287,45.287,0,0,1,8.169-10.77,45.44,45.44,0,0,1,8.169,10.77.513.513,0,0,0,.9-.488A46.637,46.637,0,0,0,26.384,6.394a.513.513,0,0,0-.711,0,46.638,46.638,0,0,0-8.711,11.365c-2.054,3.8-2.4,5.781-2.283,7.6a12.084,12.084,0,0,0,3.307,7.3,11.389,11.389,0,0,0,15.7.361.513.513,0,0,0-.7-.748,10.36,10.36,0,0,1-14.263-.324Z" transform="translate(-5.378)" fill="#a7a7a7"/>
    <path id="Path_39" data-name="Path 39" d="M12.115,16.566l.016-.016a3.423,3.423,0,0,0,.94-2.086,3.764,3.764,0,0,0-.626-2.145,12.137,12.137,0,0,0-2.293-2.989.513.513,0,0,0-.711,0,12.267,12.267,0,0,0-2.293,2.989,3.755,3.755,0,0,0-.626,2.145,3.45,3.45,0,0,0,.955,2.107,3.258,3.258,0,0,0,2.32.961,3.341,3.341,0,0,0,2.32-.966Zm-4.57-2.171a2.818,2.818,0,0,1,.5-1.587A10.989,10.989,0,0,1,9.8,10.424a11.168,11.168,0,0,1,1.746,2.383,2.821,2.821,0,0,1,.5,1.592,2.453,2.453,0,0,1-.664,1.454,2.246,2.246,0,0,1-1.587.653,2.219,2.219,0,0,1-1.577-.642A2.492,2.492,0,0,1,7.545,14.395Z" transform="translate(0 -1.939)" fill="#a7a7a7"/>
    <path id="Path_40" data-name="Path 40" d="M52.849,47.74a2.958,2.958,0,0,1-3.174,0,3.7,3.7,0,0,0-2.1-.6.515.515,0,0,0,0,1.03,2.712,2.712,0,0,1,1.587.462,3.965,3.965,0,0,0,4.194,0,2.949,2.949,0,0,1,3.169,0,3.974,3.974,0,0,0,4.2,0,2.712,2.712,0,0,1,1.587-.462.515.515,0,1,0,0-1.03,3.709,3.709,0,0,0-2.1.6,2.958,2.958,0,0,1-3.174,0,3.955,3.955,0,0,0-4.188,0Z" transform="translate(-26.773 -26.998)" fill="#a7a7a7"/>
    <path id="Path_41" data-name="Path 41" d="M62.319,58.875a3.709,3.709,0,0,0-2.1.6,2.958,2.958,0,0,1-3.174,0,3.965,3.965,0,0,0-4.194,0,2.958,2.958,0,0,1-3.174,0,3.7,3.7,0,0,0-2.1-.6.515.515,0,1,0,0,1.03,2.712,2.712,0,0,1,1.587.462,3.965,3.965,0,0,0,4.194,0,2.949,2.949,0,0,1,3.169,0,3.974,3.974,0,0,0,4.2,0,2.712,2.712,0,0,1,1.587-.462.515.515,0,0,0,.515-.515.508.508,0,0,0-.51-.515Z" transform="translate(-26.773 -34.746)" fill="#a7a7a7"/>
    <path id="Path_42" data-name="Path 42" d="M62.319,70.625a3.709,3.709,0,0,0-2.1.6,2.958,2.958,0,0,1-3.174,0,3.965,3.965,0,0,0-4.194,0,2.958,2.958,0,0,1-3.174,0,3.7,3.7,0,0,0-2.1-.6.515.515,0,1,0,0,1.03,2.712,2.712,0,0,1,1.587.462,3.965,3.965,0,0,0,4.194,0,2.949,2.949,0,0,1,3.169,0,3.974,3.974,0,0,0,4.2,0,2.712,2.712,0,0,1,1.587-.462.515.515,0,0,0,.515-.515.508.508,0,0,0-.51-.515Z" transform="translate(-26.773 -42.504)" fill="#a7a7a7"/>
  </g>
</svg>
