<svg xmlns="http://www.w3.org/2000/svg" width="130.619" height="22.184" viewBox="0 0 130.619 22.184">
  <g id="CI_SOLUMLogo_WithoutClaim-Black" transform="translate(-239.7 -226.01)">
    <path id="Path_1" data-name="Path 1" d="M257.44,230.2v4.761H246.527c-1.364,0-2.031.731-2.031,1.813,0,1.015.571,1.9,2.413,1.9h4.507c6.029,0,7.426,3.27,7.426,6.444,0,3.777-1.995,6.506-7.014,6.506H240.08v-4.764h11.9c1.4,0,2.1-.762,2.1-1.872,0-1.047-.6-2-2.508-2h-4.506c-5.936,0-7.363-3.264-7.363-6.378,0-3.717,2-6.412,6.981-6.412Z" transform="translate(0 -3.81)" fill="#fff"/>
    <path id="Path_2" data-name="Path 2" d="M521.52,230.2c6.22,0,9.68,3.555,9.68,10.759,0,7.172-3.428,10.664-9.68,10.664H518.6c-6.256,0-9.68-3.491-9.68-10.664,0-7.2,3.459-10.759,9.68-10.759Zm-2.919,4.761c-3.555,0-4.888,1.714-4.888,5.967,0,4.285,1.333,5.935,4.888,5.935h2.919c3.587,0,4.888-1.65,4.888-5.935,0-4.253-1.3-5.967-4.888-5.967Z" transform="translate(-244.811 -3.81)" fill="#fff"/>
    <path id="Path_3" data-name="Path 3" d="M828.107,230.2v13.616c0,1.65.792,3.046,3.808,3.046h7.807v4.761H831.6c-5.967,0-8.316-3.269-8.316-7.776V230.2Z" transform="translate(-530.67 -3.81)" fill="#fff"/>
    <path id="Path_4" data-name="Path 4" d="M1062.748,230.2v14.029c0,1.619.793,2.634,2.793,2.634h3.238c1.967,0,2.76-1.015,2.76-2.634V230.2h4.7v14.441c0,4.6-2.448,6.981-7.078,6.981h-4.189c-4.666,0-7.11-2.38-7.11-6.981V230.2Z" transform="translate(-743.982 -3.81)" fill="#fff"/>
    <path id="Path_5" data-name="Path 5" d="M1307.432,247.813h-5.142l5.968-17.233c.952-2.856,2.475-4.569,5.775-4.569,3.65,0,5.427,2.093,5.427,5.236V242.7a.78.78,0,0,0,.763.857.889.889,0,0,0,.825-.6l4.352-12.378c.92-2.856,2.448-4.569,5.744-4.569,3.682,0,5.427,2.093,5.427,5.236v16.567h-4.792V231.5a.762.762,0,0,0-.762-.857.839.839,0,0,0-.794.6l-4.352,12.378c-.92,2.856-2.508,4.569-5.777,4.569-3.617,0-5.427-2.094-5.427-5.236V231.5a.778.778,0,0,0-.761-.857.876.876,0,0,0-.826.6Z" transform="translate(-966.251)" fill="#fff"/>
  </g>
</svg>
