<svg xmlns="http://www.w3.org/2000/svg" width="29.541" height="33.604" viewBox="0 0 29.541 33.604">
  <g id="noun-temperature-7275135" transform="translate(-13.25 -8.202)">
    <path id="Path_43" data-name="Path 43" d="M24.867,28.164a1.506,1.506,0,0,1-.694-1.236V11.795a3.562,3.562,0,0,0-3.126-3.577,3.428,3.428,0,0,0-2.668.884,3.476,3.476,0,0,0-1.135,2.564V26.93a1.48,1.48,0,0,1-.681,1.223,7.456,7.456,0,0,0,4.166,13.653,7.455,7.455,0,0,0,6.854-4.568,7.456,7.456,0,0,0-2.715-9.076Zm1.845,8.71a6.513,6.513,0,1,1-9.627-7.936,2.422,2.422,0,0,0,1.1-2.007V11.666A2.525,2.525,0,0,1,19.016,9.8a2.492,2.492,0,0,1,1.691-.655,2.29,2.29,0,0,1,.253.013,2.611,2.611,0,0,1,2.274,2.638V26.928a2.448,2.448,0,0,0,1.112,2.018,6.514,6.514,0,0,1,2.371,7.928Zm-5.532-6.447v-17.9a.471.471,0,1,0-.942,0V30.428a3.962,3.962,0,1,0,.942,0Zm-.471,6.935a3.021,3.021,0,1,1,3.019-3.021A3.024,3.024,0,0,1,20.709,37.362ZM34.851,10.415V9.143a.471.471,0,1,1,.942,0v1.272a.471.471,0,1,1-.942,0Zm4.186,2.01a.471.471,0,0,1,0-.666l.9-.9a.47.47,0,1,1,.664.666l-.9.9a.47.47,0,0,1-.666,0Zm3.754,3.715a.47.47,0,0,1-.471.471H41.046a.471.471,0,0,1,0-.942H42.32A.47.47,0,0,1,42.791,16.139ZM40.6,20.754a.47.47,0,1,1-.664.666l-.9-.9a.47.47,0,1,1,.664-.666Zm-4.81,1.11v1.273a.471.471,0,1,1-.942,0V21.864a.471.471,0,1,1,.942,0Zm-4.186-2.01a.471.471,0,0,1,0,.666l-.9.9a.471.471,0,0,1-.667-.666l.9-.9a.471.471,0,0,1,.666,0ZM29.6,16.61H28.325a.471.471,0,0,1,0-.942H29.6a.471.471,0,0,1,0,.942Zm.444-5.086a.471.471,0,0,1,.667-.666l.9.9a.471.471,0,0,1-.333.8.464.464,0,0,1-.333-.138l-.9-.9Zm5.281.963a3.652,3.652,0,1,0,3.652,3.652A3.655,3.655,0,0,0,35.322,12.487Zm0,6.362a2.71,2.71,0,1,1,2.71-2.71A2.713,2.713,0,0,1,35.322,18.849Z" transform="translate(0)" fill="#a7a7a7"/>
  </g>
</svg>
