<svg xmlns="http://www.w3.org/2000/svg" width="112.532" height="18.929" viewBox="0 0 112.532 18.929">
  <g id="Group_6954" data-name="Group 6954" transform="translate(-460 -455.895)">
    <path id="Path_171" data-name="Path 171" d="M654.043,455.895h-2.584c-5.505,0-8.561,3.136-8.561,9.5s3.029,9.428,8.555,9.428h2.584c5.532,0,8.567-3.089,8.567-9.428S659.542,455.895,654.043,455.895Zm-.006,14.724h-2.585c-3.143,0-4.322-1.468-4.322-5.249s1.178-5.269,4.328-5.269h2.585c3.17,0,4.328,1.514,4.328,5.269S657.214,470.619,654.037,470.619Z" transform="translate(-162.316 0)" fill="#2f006d" fill-rule="evenodd"/>
    <path id="Path_172" data-name="Path 172" d="M470.358,463.385h-3.984c-1.629,0-2.134-.787-2.134-1.682a1.577,1.577,0,0,1,1.8-1.595h9.416V455.9h-9.274c-4.408,0-6.178,2.382-6.178,5.666s1.265,5.632,6.515,5.632H470.5c1.689,0,2.221.841,2.221,1.77a1.637,1.637,0,0,1-1.858,1.656H460.693v4.206h10.028c4.435,0,6.205-2.416,6.205-5.747S475.688,463.385,470.358,463.385Z" transform="translate(0 -0.001)" fill="#2f006d" fill-rule="evenodd"/>
    <path id="Path_173" data-name="Path 173" d="M868.43,470.619H860.7c-1.77,0-2.47-.9-2.47-2.328V455.9h-4.328v12.765c0,4.064,2.161,6.164,6.286,6.164h8.238Z" transform="translate(-349.579 -0.001)" fill="#2f006d" fill-rule="evenodd"/>
    <path id="Path_174" data-name="Path 174" d="M1032.09,472.207a7.176,7.176,0,0,0,.8-3.547V455.895h-4.328V468.29c0,1.433-.7,2.328-2.47,2.328h-4.321c-1.77,0-2.47-.895-2.47-2.328V455.895h-4.328V468.66c0,4.064,2.161,6.164,6.293,6.164h5.364c2.522,0,4.306-.8,5.309-2.359A1.813,1.813,0,0,0,1032.09,472.207Z" transform="translate(-492.52 0)" fill="#2f006d" fill-rule="evenodd"/>
    <path id="Path_175" data-name="Path 175" d="M1198.642,474.825h4.459l4.533-14.346a.4.4,0,0,0,.017-.04.4.4,0,0,1,.017-.04.732.732,0,0,1,.714-.478.679.679,0,0,1,.666.74v9.468c0,2.725,1.912,4.542,4.8,4.542s4.294-1.48,5.1-3.957l3.237-10.282a.7.7,0,0,1,1.366.222v14.172h4.5V460.438c0-2.725-2.154-4.542-5.068-4.542s-4.267,1.48-5.075,3.957l-3.23,10.282a.77.77,0,0,1-.734.518.681.681,0,0,1-.673-.74v-9.474c0-2.725-1.885-4.542-4.8-4.542s-4.26,1.48-5.1,3.957l-4.731,14.971h0Z" transform="translate(-655.521 -0.001)" fill="#2f006d" fill-rule="evenodd"/>
  </g>
</svg>
