<svg xmlns="http://www.w3.org/2000/svg" width="151.358" height="49.464" viewBox="0 0 151.358 49.464">
  <g id="Group_6953" data-name="Group 6953" transform="translate(-140 -27.536)">
    <g id="Charger_logo-02" transform="translate(-316.604 -432.544)">
      <path id="Path_84" data-name="Path 84" d="M13.182-56.886c-5.163,0-8.034,2.95-8.034,8.93,0,5.953,2.845,8.851,8.034,8.851h2.423c5.189,0,8.034-2.9,8.034-8.851,0-5.98-2.871-8.93-8.034-8.93Zm2.423,1.607c4.241,0,6.427,2.344,6.427,7.323,0,4.952-2.16,7.244-6.427,7.244H13.182c-4.267,0-6.427-2.292-6.427-7.244,0-4.979,2.186-7.323,6.427-7.323Zm10.616,2.66V-51.2h1.9v12.091h1.475V-51.2h4.452v-1.422H29.593v-2.239c0-2.107.764-2.819,2.529-2.819h1.87v-1.37H31.885c-2.634,0-3.767,1.054-3.767,4.267v2.16Zm10.141,0V-51.2h1.9v12.091h1.475V-51.2h4.452v-1.422H39.734v-2.239c0-2.107.764-2.819,2.529-2.819h1.87v-1.37H42.026c-2.634,0-3.767,1.054-3.767,4.267v2.16Zm11.011,0v13.513h1.475V-52.619Zm0-4.952v2.687h1.475v-2.687ZM58.7-52.619c-3.714,0-6.032,2.239-6.032,6.77,0,4.557,2.318,6.743,6.032,6.743h7.165v-1.422h-7.06c-2.977,0-4.662-1.66-4.662-5.321,0-3.635,1.686-5.321,4.662-5.321h7.06v-1.449Zm15.515,0c-3.477,0-4.847,1.923-4.847,4.452v4.61c0,2.581,1.37,4.452,4.847,4.452h8.508v-1.422H74.215c-2.45,0-3.4-1.317-3.4-3.056v-1.238h8.008c3.345,0,4.583-1.343,4.583-3.767,0-2.529-1.343-4.03-4.557-4.03Zm-3.4,4.478c0-1.739.948-3.029,3.4-3.029h4.636c2.186,0,3.108,1,3.108,2.634,0,1.607-.869,2.5-3.161,2.5H70.817Zm17.754-4.478c-.869,0-1.264.369-1.264,1.37v12.143h1.475V-50.854c0-.237.105-.316.29-.316H98.16v12.064h1.5V-51.17h3.925c3.82,0,5.532,1.58,5.532,4.478v7.586h1.475v-7.586c0-3.767-2.265-5.927-7.007-5.927Zm26.947,0v1.449h8.35c2.45,0,3.4,1.291,3.4,3.029V-46.8h-8.061c-3.319,0-4.531,1.343-4.531,3.714,0,2.476,1.317,3.978,4.5,3.978h7.3c1.739,0,2.239-.659,2.239-2.186v-6.875c0-2.529-1.37-4.452-4.847-4.452Zm10.668,12.091H119.18c-2.16,0-3.056-1-3.056-2.608,0-1.554.843-2.45,3.108-2.45h8.034v4.03C127.267-40.87,126.977-40.528,126.187-40.528Zm5.558-12.091V-51.2h1.9v7.823c0,3.24,1.133,4.267,3.767,4.267h2.107v-1.37h-1.87c-1.765,0-2.529-.685-2.529-2.819v-7.9h4.452v-1.422h-4.452v-3.187h-1.475v3.187Zm15.568,0c-3.477,0-4.847,1.923-4.847,4.452v4.61c0,2.581,1.37,4.452,4.847,4.452h8.508v-1.422h-8.508c-2.45,0-3.4-1.317-3.4-3.056v-1.238h8.008c3.345,0,4.583-1.343,4.583-3.767,0-2.529-1.343-4.03-4.557-4.03Zm-3.4,4.478c0-1.739.948-3.029,3.4-3.029h4.636c2.186,0,3.108,1,3.108,2.634,0,1.607-.869,2.5-3.161,2.5h-7.981Z" transform="translate(451.456 548.65)" fill="#2f006d"/>
    </g>
    <g id="Group_17" data-name="Group 17" transform="translate(-320 -428.359)">
      <path id="Path_171" data-name="Path 171" d="M654.043,455.895h-2.584c-5.505,0-8.561,3.136-8.561,9.5s3.029,9.428,8.555,9.428h2.584c5.532,0,8.567-3.089,8.567-9.428S659.542,455.895,654.043,455.895Zm-.006,14.724h-2.585c-3.143,0-4.322-1.468-4.322-5.249s1.178-5.269,4.328-5.269h2.585c3.17,0,4.328,1.514,4.328,5.269S657.214,470.619,654.037,470.619Z" transform="translate(-162.316 0)" fill="#2f006d" fill-rule="evenodd"/>
      <path id="Path_172" data-name="Path 172" d="M470.358,463.385h-3.984c-1.629,0-2.134-.787-2.134-1.682a1.577,1.577,0,0,1,1.8-1.595h9.416V455.9h-9.274c-4.408,0-6.178,2.382-6.178,5.666s1.265,5.632,6.515,5.632H470.5c1.689,0,2.221.841,2.221,1.77a1.637,1.637,0,0,1-1.858,1.656H460.693v4.206h10.028c4.435,0,6.205-2.416,6.205-5.747S475.688,463.385,470.358,463.385Z" transform="translate(0 -0.001)" fill="#2f006d" fill-rule="evenodd"/>
      <path id="Path_173" data-name="Path 173" d="M868.43,470.619H860.7c-1.77,0-2.47-.9-2.47-2.328V455.9h-4.328v12.765c0,4.064,2.161,6.164,6.286,6.164h8.238Z" transform="translate(-349.579 -0.001)" fill="#2f006d" fill-rule="evenodd"/>
      <path id="Path_174" data-name="Path 174" d="M1032.09,472.207a7.176,7.176,0,0,0,.8-3.547V455.895h-4.328V468.29c0,1.433-.7,2.328-2.47,2.328h-4.321c-1.77,0-2.47-.895-2.47-2.328V455.895h-4.328V468.66c0,4.064,2.161,6.164,6.293,6.164h5.364c2.522,0,4.306-.8,5.309-2.359A1.813,1.813,0,0,0,1032.09,472.207Z" transform="translate(-492.52 0)" fill="#2f006d" fill-rule="evenodd"/>
      <path id="Path_175" data-name="Path 175" d="M1198.642,474.825h4.459l4.533-14.346a.4.4,0,0,0,.017-.04.4.4,0,0,1,.017-.04.732.732,0,0,1,.714-.478.679.679,0,0,1,.666.74v9.468c0,2.725,1.912,4.542,4.8,4.542s4.294-1.48,5.1-3.957l3.237-10.282a.7.7,0,0,1,1.366.222v14.172h4.5V460.438c0-2.725-2.154-4.542-5.068-4.542s-4.267,1.48-5.075,3.957l-3.23,10.282a.77.77,0,0,1-.734.518.681.681,0,0,1-.673-.74v-9.474c0-2.725-1.885-4.542-4.8-4.542s-4.26,1.48-5.1,3.957l-4.731,14.971h0Z" transform="translate(-655.521 -0.001)" fill="#2f006d" fill-rule="evenodd"/>
    </g>
  </g>
</svg>
